<svg width="100" height="100" viewBox="0 0 100 100" fill="none" xmlns="http://www.w3.org/2000/svg">
<path d="M35 15H25V25H35V15Z" fill="#FF3366"/>
<path d="M45 15H35V25H45V15Z" fill="#FF3366"/>
<path d="M45 25H35V35H45V25Z" fill="#FF3366"/>
<path d="M55 25H45V35H55V25Z" fill="#FF3366"/>
<path d="M55 35H45V45H55V35Z" fill="#FF3366"/>
<path d="M65 35H55V45H65V35Z" fill="#FF3366"/>
<path d="M65 45H55V55H65V45Z" fill="#FF3366"/>
<path d="M75 45H65V55H75V45Z" fill="#FF3366"/>
<path d="M55 55H45V65H55V55Z" fill="#FF3366"/>
<path d="M65 55H55V65H65V55Z" fill="#FF3366"/>
<path d="M45 65H35V75H45V65Z" fill="#FF3366"/>
<path d="M55 65H45V75H55V65Z" fill="#FF3366"/>
<path d="M35 75H25V85H35V75Z" fill="#FF3366"/>
<path d="M45 75H35V85H45V75Z" fill="#FF3366"/>
<path d="M35 15H25V25H35V15Z" fill="#FF6699"/>
<path d="M45 15H35V25H45V15Z" fill="#FF6699"/>
<path d="M45 25H35V35H45V25Z" fill="#FF6699"/>
<path d="M55 35H45V45H55V35Z" fill="#FF6699"/>
<path d="M65 45H55V55H65V45Z" fill="#FF6699"/>
<path d="M75 45H65V55H75V45Z" fill="#CC2952"/>
<path d="M65 55H55V65H65V55Z" fill="#CC2952"/>
<path d="M55 65H45V75H55V65Z" fill="#CC2952"/>
<path d="M45 75H35V85H45V75Z" fill="#CC2952"/>
<path d="M35 75H25V85H35V75Z" fill="#CC2952"/>
</svg>
