<svg width="338" height="88" viewBox="0 0 338 88" fill="none" xmlns="http://www.w3.org/2000/svg">
<g clip-path="url(#clip0_8_66)">
<path d="M256.491 31.8021L245.736 48.5175L244.665 31.8021H235.68H232.887H229.209C230.652 26.9132 231.769 22.9556 231.769 22.9556L232.375 21H220.503L219.944 22.9556L217.383 31.8021H207.281C205.605 31.8021 204.767 31.8021 204.767 31.8021C194.384 31.8021 188.565 34.782 186.144 40.3693C184.747 35.2476 180.138 31.8021 173.015 31.8021C166.87 31.8021 161.422 34.0836 157.372 37.7153C155.277 34.0836 151.133 31.8021 145.36 31.8021C138.749 31.8021 133.023 34.4561 128.833 38.5069C126.924 34.4561 122.594 31.8021 116.402 31.8021C114.261 31.8021 112.259 32.0815 110.35 32.5937L111.281 29.3809C111.281 29.3344 111.328 29.2878 111.328 29.2413L113.702 21H101.877L94.3346 46.9809C94.1483 47.4931 93.9621 48.0053 93.8224 48.564C93.4965 49.7746 93.2638 50.9386 93.1706 52.0561C92.193 59.3196 95.3588 64.7672 104.158 65.1397C104.949 65.2328 105.787 65.2794 106.719 65.2794C112.957 65.2794 118.777 62.6254 123.06 58.5746C124.876 62.6254 129.112 65.2794 135.677 65.2794C141.496 65.2794 146.99 62.9979 151.133 59.3661C153.135 62.9979 157.232 65.2794 163.331 65.2794C176.553 65.2794 186.423 65.2794 192.941 65.2794C202.113 65.2794 207.281 63.4635 209.981 59.5524C209.981 63.3238 212.122 65.2794 217.523 65.2794C221.899 65.2794 227.765 64.3016 235.82 62.346L224.134 79.0148H235.959L268.316 31.8021H256.491ZM117.52 48.5175C116.402 52.3354 112.864 55.4085 109.605 55.4085C106.346 55.4085 104.577 52.3354 105.694 48.5175C106.812 44.6995 110.35 41.6265 113.609 41.6265C116.868 41.6265 118.637 44.6995 117.52 48.5175ZM146.431 48.5175C145.314 52.3354 141.776 55.4085 138.517 55.4085C135.258 55.4085 133.489 52.3354 134.606 48.5175C135.723 44.6995 139.262 41.6265 142.521 41.6265C145.779 41.6265 147.549 44.6995 146.431 48.5175ZM162.307 48.5175C163.424 44.6995 166.963 41.6265 170.222 41.6265C173.481 41.6265 175.25 44.6995 174.132 48.5175C173.062 52.2889 169.57 55.3153 166.357 55.4085C166.264 55.4085 166.171 55.4085 166.078 55.4085C162.912 55.3153 161.236 52.2889 162.307 48.5175ZM200.344 54.1979C199.738 55.5947 195.083 55.3619 193.919 55.4085C193.919 55.4085 190.846 55.4085 182.466 55.4085C184.002 53.3132 185.213 50.9852 185.911 48.5175C186.004 48.2847 186.051 48.0053 186.097 47.7725C187.354 49.5418 189.962 51.1249 195.036 52.1492C199.878 53.0804 200.763 52.8011 200.344 54.1979ZM212.029 50.4265C211.005 46.5153 206.675 44.9323 200.576 44.1873C198.016 43.8614 196.573 43.7682 196.898 42.6508C197.131 41.8127 198.435 41.6265 201.182 41.6265C202.904 41.6265 204.953 41.6265 207.327 41.6265H214.59L212.029 50.4265ZM223.808 50.473C223.808 50.3799 224.972 46.4688 226.369 41.6265H233.864L235.075 54.1513C222.737 56.8053 222.458 56.1069 223.808 50.473Z" fill="white"/>
<path d="M324.277 31.8021C313.15 31.8021 304.397 39.2984 301.744 48.5175C301.138 50.6127 300.906 52.6148 301.045 54.4772C290.198 56.7122 289.965 55.8741 291.268 50.473C291.268 50.3799 292.432 46.4688 293.829 41.6265H303.14L306.027 31.8021H296.669C298.112 26.9132 299.23 22.9556 299.23 22.9556L299.835 21H287.963L287.404 22.9556L284.844 31.8021H274.741L271.808 41.6265H282.004L278.233 54.6169C276.324 61.5079 277.534 65.2328 284.983 65.2328C289.36 65.2328 295.226 64.255 303.28 62.2995L304.537 62.0201C306.818 64.0222 310.17 65.2328 314.593 65.2328C325.115 65.2328 334.473 57.7365 337.127 48.5175C339.78 39.2984 334.706 31.8021 324.277 31.8021ZM325.301 48.5175C324.184 52.3354 320.646 55.4085 317.387 55.4085C314.128 55.4085 312.359 52.3354 313.476 48.5175C314.593 44.6995 318.132 41.6265 321.391 41.6265C324.649 41.6265 326.419 44.6995 325.301 48.5175Z" fill="white"/>
<path d="M266.58 63.9173C269.268 62.0174 270.291 58.8431 268.867 56.8272C267.442 54.8113 264.108 54.7173 261.421 56.6171C258.733 58.517 257.709 61.6913 259.134 63.7072C260.559 65.7231 263.892 65.8171 266.58 63.9173Z" fill="white"/>
<path d="M2.56062 52.5672L17.7846 0H41.1094L36.4072 16.2963C36.3606 16.3894 36.3141 16.4825 36.2675 16.5757L23.8835 59.5979H35.4295C30.5876 71.6571 26.8165 81.109 24.1163 87.9534C2.7934 87.7206 -3.16583 72.4487 2.0485 54.3831M24.1628 88L52.2829 47.5386H40.3645L50.7466 21.6042C68.5311 23.4667 76.9113 37.4815 71.9763 54.4296C66.7154 72.6349 45.346 88 24.5818 88C24.4422 88 24.3025 88 24.1628 88Z" fill="white"/>
</g>
<defs>
<clipPath id="clip0_8_66">
<rect width="338" height="88" fill="white"/>
</clipPath>
</defs>
</svg>
