<svg width="465" height="88" viewBox="0 0 465 88" fill="none" xmlns="http://www.w3.org/2000/svg">
<g clip-path="url(#clip0_9_75)">
<path d="M156.182 18.4475H181.138C187.154 18.4475 192.242 19.3851 196.405 21.2603C200.237 22.8699 203.491 25.6018 205.738 29.0959C207.842 32.5477 208.92 36.5258 208.846 40.5662C208.893 44.6252 207.773 48.6124 205.619 52.0548C203.217 55.6914 199.783 58.5281 195.756 60.2009C191.343 62.2101 185.874 63.2116 179.347 63.2055H156.182V18.4475ZM179.091 51.8174C183.144 51.8174 186.258 50.8067 188.433 48.7854C189.537 47.7167 190.398 46.4248 190.961 44.9962C191.524 43.5677 191.775 42.0355 191.697 40.5023C191.765 39.0791 191.542 37.6569 191.042 36.3224C190.543 34.9879 189.776 33.769 188.79 32.7397C186.84 30.8037 183.905 29.8326 179.987 29.8265H172.18V51.8174H179.091Z" fill="white"/>
<path d="M246.217 63.1325C242.924 62.3083 239.775 60.9937 236.874 59.233V48.6211C239.407 50.4612 242.258 51.8174 245.284 52.6211C248.595 53.6302 252.034 54.1562 255.495 54.1827C256.69 54.2464 257.883 54.0404 258.987 53.58C259.774 53.1782 260.167 52.6667 260.167 52.1371C260.175 51.8411 260.123 51.5466 260.013 51.2717C259.903 50.9968 259.737 50.7474 259.527 50.5389C258.797 49.9779 257.94 49.6047 257.031 49.4521L249.352 47.7261C244.952 46.7033 241.829 45.2877 239.982 43.4795C239.055 42.5455 238.333 41.4291 237.861 40.2013C237.389 38.9734 237.177 37.6609 237.24 36.3471C237.209 33.966 238.077 31.6607 239.671 29.8905C241.562 27.893 243.945 26.4283 246.582 25.6439C249.976 24.5783 253.52 24.0694 257.077 24.1371C260.397 24.1059 263.708 24.4925 266.931 25.2877C269.535 25.904 272.035 26.8946 274.354 28.2284V38.274C272.18 37.0137 269.842 36.058 267.407 35.4339C264.768 34.7271 262.048 34.3709 259.317 34.3745C255.306 34.3745 253.301 35.0564 253.301 36.4202C253.295 36.7239 253.378 37.0228 253.541 37.2794C253.703 37.5361 253.938 37.7391 254.216 37.8631C255.311 38.3285 256.459 38.6596 257.634 38.8494L264.033 40.0001C268.19 40.7307 271.289 42.0092 273.33 43.8357C275.372 45.6622 276.396 48.3349 276.402 51.854C276.434 53.7044 275.982 55.5311 275.088 57.1525C274.195 58.7739 272.892 60.1334 271.31 61.096C267.94 63.3547 263.129 64.481 256.876 64.475C253.28 64.4805 249.698 64.0294 246.217 63.1325Z" fill="white"/>
<path d="M291.522 61.7899C288.101 60.2196 285.218 57.6789 283.231 54.484C281.377 51.3509 280.428 47.7666 280.488 44.1278C280.433 40.4913 281.433 36.9165 283.368 33.8356C285.43 30.6909 288.365 28.2154 291.815 26.7123C296.008 24.8868 300.552 24.0015 305.125 24.1187C311.524 24.1187 316.835 25.4612 321.058 28.1461V39.863C319.452 38.7839 317.696 37.9441 315.848 37.3698C313.778 36.7172 311.619 36.3936 309.449 36.4109C305.481 36.4109 302.376 37.1354 300.133 38.5844C299.125 39.1466 298.284 39.9654 297.696 40.9577C297.107 41.95 296.792 43.0803 296.783 44.2337C296.774 45.387 297.07 46.5223 297.643 47.5239C298.215 48.5255 299.043 49.3578 300.042 49.936C302.218 51.4033 305.374 52.137 309.512 52.137C311.648 52.1421 313.774 51.8344 315.82 51.2237C317.687 50.689 319.48 49.9252 321.159 48.9497V60.2739C316.212 63.155 310.566 64.6151 304.841 64.4931C300.253 64.6182 295.697 63.6936 291.522 61.7899Z" fill="white"/>
<path d="M336.992 61.79C333.532 60.2119 330.598 57.6765 328.536 54.4841C326.593 51.3584 325.584 47.7431 325.629 44.064C325.567 40.4284 326.578 36.8551 328.536 33.79C330.609 30.6787 333.53 28.2258 336.955 26.7215C345.368 23.3119 354.779 23.3119 363.191 26.7215C366.602 28.2143 369.512 30.6552 371.574 33.7535C373.519 36.8299 374.52 40.4077 374.454 44.0457C374.499 47.7212 373.501 51.3342 371.574 54.4658C369.535 57.6605 366.614 60.1977 363.164 61.7717C359.029 63.5432 354.577 64.4567 350.078 64.4567C345.579 64.4567 341.127 63.5432 336.992 61.7717V61.79ZM356.436 50.4475C357.226 49.6322 357.842 48.6639 358.244 47.6023C358.647 46.5407 358.828 45.4081 358.776 44.274C358.831 43.1506 358.652 42.028 358.249 40.9777C357.846 39.9274 357.228 38.9724 356.436 38.1736C355.576 37.3858 354.566 36.7786 353.467 36.388C352.368 35.9973 351.201 35.8313 350.037 35.8996C348.873 35.8384 347.708 36.0079 346.61 36.3981C345.512 36.7884 344.502 37.3918 343.638 38.1736C342.848 38.9741 342.233 39.9296 341.832 40.9797C341.431 42.0297 341.252 43.1514 341.307 44.274C341.255 45.4072 341.436 46.539 341.836 47.6004C342.237 48.6617 342.85 49.6305 343.638 50.4475C344.493 51.2451 345.501 51.8624 346.6 52.2625C347.699 52.6626 348.868 52.8373 350.037 52.7763C351.206 52.8443 352.377 52.6727 353.477 52.2723C354.577 51.8718 355.584 51.2509 356.436 50.4475Z" fill="white"/>
<path d="M412.912 26.4841V40.3106C411.002 39.1717 408.799 38.6162 406.577 38.7124C403.167 38.7124 400.534 39.7535 398.706 41.8174C396.878 43.8814 395.964 47.0869 395.964 51.4339V63.1964H380.286V25.7992H395.644V37.6713C396.497 33.3243 397.874 30.1188 399.776 28.0549C400.697 27.04 401.829 26.2368 403.091 25.7008C404.354 25.1647 405.718 24.9085 407.089 24.9499C409.137 24.8941 411.158 25.4265 412.912 26.4841Z" fill="white"/>
<path d="M465 17.1689V63.1963H449.322V54.7945C448.14 57.7856 446.016 60.3115 443.271 61.9909C440.24 63.7158 436.793 64.5751 433.306 64.4749C430.026 64.5512 426.796 63.6516 424.028 61.8904C421.347 60.1507 419.212 57.6914 417.866 54.7945C416.399 51.5969 415.668 48.1109 415.727 44.5936C415.624 40.9468 416.402 37.3287 417.994 34.0457C419.458 31.0386 421.743 28.506 424.585 26.7397C427.507 24.9714 430.869 24.0629 434.285 24.1187C441.744 24.1187 446.757 27.3577 449.322 33.8356V17.1689H465ZM447.019 50.2283C447.818 49.4426 448.444 48.4993 448.858 47.4584C449.272 46.4175 449.464 45.3019 449.423 44.1826C449.457 43.0969 449.26 42.0163 448.846 41.012C448.431 40.0078 447.809 39.1026 447.019 38.3562C445.225 36.8973 442.983 36.1008 440.67 36.1008C438.357 36.1008 436.115 36.8973 434.321 38.3562C433.533 39.1197 432.915 40.0405 432.507 41.0586C432.099 42.0766 431.911 43.1691 431.953 44.2648C431.913 45.3709 432.106 46.473 432.518 47.5002C432.931 48.5274 433.554 49.4567 434.349 50.2283C435.188 51.0083 436.176 51.6128 437.253 52.0064C438.33 52.4 439.474 52.5748 440.62 52.5205C441.785 52.5849 442.952 52.4152 444.051 52.0215C445.15 51.6278 446.159 51.018 447.019 50.2283Z" fill="white"/>
<path d="M98.4537 7.36986C90.8176 3.87733 82.7563 1.39961 74.4756 0C73.3425 2.02364 72.3172 4.10569 71.4041 6.23744C62.5836 4.90961 53.6137 4.90961 44.7932 6.23744C43.8796 4.10591 42.8543 2.02388 41.7217 0C33.4357 1.41143 25.369 3.89503 17.7253 7.38813C2.55039 29.8174 -1.56328 51.6895 0.493553 73.2511C9.38034 79.8106 19.3272 84.7991 29.9017 88C32.2828 84.8007 34.3897 81.4067 36.2002 77.8539C32.7615 76.5708 29.4425 74.9879 26.2817 73.1233C27.1136 72.5205 27.9272 71.8995 28.7133 71.2968C37.9105 75.6177 47.9488 77.8581 58.1123 77.8581C68.2758 77.8581 78.3141 75.6177 87.5114 71.2968C88.3067 71.9452 89.1203 72.5662 89.943 73.1233C86.7761 74.9909 83.451 76.5769 80.0062 77.863C81.8144 81.4142 83.9215 84.8054 86.3047 88C96.8883 84.812 106.843 79.8258 115.731 73.2603C118.144 48.2557 111.608 26.5845 98.4537 7.36986ZM38.8055 59.9909C33.0738 59.9909 28.3385 54.7945 28.3385 48.4018C28.3385 42.0091 32.9093 36.7671 38.7872 36.7671C44.6652 36.7671 49.3639 42.0091 49.2634 48.4018C49.1628 54.7945 44.6469 59.9909 38.8055 59.9909ZM77.4192 59.9909C71.6783 59.9909 66.9613 54.7945 66.9613 48.4018C66.9613 42.0091 71.532 36.7671 77.4192 36.7671C83.3063 36.7671 87.9684 42.0091 87.8679 48.4018C87.7673 54.7945 83.2606 59.9909 77.4192 59.9909Z" fill="white"/>
<path d="M222.065 29.7808C226.382 29.7808 229.881 26.6407 229.881 22.7671C229.881 18.8936 226.382 15.7534 222.065 15.7534C217.748 15.7534 214.249 18.8936 214.249 22.7671C214.249 26.6407 217.748 29.7808 222.065 29.7808Z" fill="white"/>
<path d="M214.24 34.6118C216.716 35.6514 219.375 36.1869 222.06 36.1869C224.746 36.1869 227.405 35.6514 229.881 34.6118V63.3972H214.24V34.6118Z" fill="white"/>
</g>
<defs>
<clipPath id="clip0_9_75">
<rect width="465" height="88" fill="white"/>
</clipPath>
</defs>
</svg>
