<svg width="29" height="20" viewBox="0 0 29 20" fill="none" xmlns="http://www.w3.org/2000/svg">
<g clip-path="url(#clip0_4_16)">
<mask id="mask0_4_16" style="mask-type:luminance" maskUnits="userSpaceOnUse" x="0" y="0" width="29" height="20">
<path d="M29 0H0V20H29V0Z" fill="white"/>
</mask>
<g mask="url(#mask0_4_16)">
<path d="M24.3088 2.21767C21.9676 0.332972 18.2635 0.0135603 18.1047 0.00238388C17.984 -0.0075501 17.8633 0.0202933 17.7591 0.0820557C17.655 0.143818 17.5726 0.236441 17.5235 0.347089C17.4529 0.506043 17.3929 0.669545 17.3441 0.8365C18.8929 1.09826 20.7953 1.62473 22.5164 2.69297C22.5821 2.73372 22.6391 2.787 22.6842 2.84977C22.7292 2.91255 22.7615 2.98358 22.7791 3.05882C22.7967 3.13407 22.7993 3.21204 22.7868 3.2883C22.7743 3.36456 22.7469 3.4376 22.7061 3.50326C22.6654 3.56892 22.6121 3.62591 22.5493 3.67098C22.4866 3.71605 22.4155 3.74831 22.3403 3.76593C22.265 3.78355 22.1871 3.78617 22.1108 3.77365C22.0346 3.76113 21.9615 3.73371 21.8958 3.69297C18.937 1.85591 15.2417 1.76473 14.5294 1.76473C13.8176 1.76473 10.12 1.8565 7.16293 3.69238C7.09727 3.73313 7.02423 3.76054 6.94797 3.77306C6.87171 3.78558 6.79374 3.78296 6.7185 3.76534C6.56654 3.72976 6.43493 3.63528 6.35264 3.50267C6.27034 3.37006 6.2441 3.2102 6.27967 3.05824C6.31525 2.90628 6.40974 2.77467 6.54234 2.69238C8.26352 1.62709 10.1659 1.09826 11.7147 0.838853C11.6253 0.547089 11.5441 0.362971 11.5382 0.347089C11.4893 0.23566 11.4065 0.142429 11.3017 0.0805744C11.1969 0.0187193 11.0753 -0.00863259 10.9541 0.00238388C10.7953 0.0141486 7.09117 0.332971 4.71764 2.24297C3.47941 3.38885 1 10.0894 1 15.8824C1 15.9859 1.02765 16.0847 1.07824 16.1741C2.78764 19.18 7.4547 19.9653 8.51822 20H8.53646C8.62927 20.0002 8.72083 19.9785 8.80364 19.9366C8.88645 19.8947 8.95817 19.8338 9.01293 19.7588L10.0876 18.2788C7.18587 17.53 5.70352 16.2571 5.61882 16.1812C5.50181 16.0779 5.43062 15.9324 5.42091 15.7766C5.41121 15.6208 5.46377 15.4676 5.56705 15.3506C5.67033 15.2336 5.81586 15.1624 5.97162 15.1527C6.12739 15.143 6.28063 15.1955 6.39764 15.2988C6.43176 15.3312 9.16175 17.6471 14.5294 17.6471C19.9059 17.6471 22.6358 15.3218 22.6635 15.2988C22.7809 15.1963 22.9341 15.1445 23.0896 15.1549C23.2451 15.1653 23.3902 15.2369 23.4929 15.3541C23.5437 15.4119 23.5827 15.4791 23.6076 15.552C23.6324 15.6248 23.6427 15.7018 23.6378 15.7786C23.6329 15.8554 23.6129 15.9305 23.5789 15.9996C23.545 16.0687 23.4978 16.1304 23.44 16.1812C23.3553 16.2571 21.8729 17.53 18.9711 18.2788L20.0464 19.7588C20.1011 19.8337 20.1728 19.8946 20.2555 19.9365C20.3382 19.9784 20.4296 20.0001 20.5223 20H20.54C21.6047 19.9653 26.2711 19.1794 27.9811 16.1741C28.0311 16.0847 28.0588 15.9859 28.0588 15.8824C28.0588 10.0894 25.5794 3.38944 24.3088 2.21767ZM10.7059 13.5294C9.56822 13.5294 8.64705 12.4765 8.64705 11.1765C8.64705 9.87648 9.56822 8.82355 10.7059 8.82355C11.8435 8.82355 12.7647 9.87648 12.7647 11.1765C12.7647 12.4765 11.8435 13.5294 10.7059 13.5294ZM18.3529 13.5294C17.2153 13.5294 16.2941 12.4765 16.2941 11.1765C16.2941 9.87648 17.2153 8.82355 18.3529 8.82355C19.4906 8.82355 20.4117 9.87648 20.4117 11.1765C20.4117 12.4765 19.4906 13.5294 18.3529 13.5294Z" fill="white"/>
</g>
</g>
<defs>
<clipPath id="clip0_4_16">
<rect width="29" height="20" fill="white"/>
</clipPath>
</defs>
</svg>
