<svg width="451" height="130" viewBox="0 0 451 130" fill="none" xmlns="http://www.w3.org/2000/svg">
<mask id="mask0_12_3" style="mask-type:luminance" maskUnits="userSpaceOnUse" x="3" y="14" width="448" height="103">
<path d="M451 14H3V116.768H451V14Z" fill="white"/>
</mask>
<g mask="url(#mask0_12_3)">
<mask id="mask1_12_3" style="mask-type:luminance" maskUnits="userSpaceOnUse" x="3" y="14" width="448" height="103">
<path d="M451 14H3V116.768H451V14Z" fill="white"/>
</mask>
<g mask="url(#mask1_12_3)">
<path d="M57.9333 14C60.8934 14.5339 63.9066 14.8809 66.8134 15.6016C86.8669 20.5664 102.067 37.5965 104.893 58.15C108.654 85.4835 90.8937 110.468 63.8267 115.887C61.88 116.287 59.88 116.5 57.9067 116.794C48.84 116.794 39.7734 116.794 30.7067 116.794C30.7067 99.5775 30.7067 82.3605 30.7333 65.1703C30.7333 64.0224 30.84 62.848 31.0267 61.7269C32.7867 50.1688 43.32 41.4403 54.8667 41.8941C67.0534 42.4012 76.8401 51.8238 77.613 63.8356C78.7599 81.6664 60.6267 94.1851 44.3867 86.7648C44.04 86.6046 43.6933 86.4712 43.1867 86.2843C43.1867 91.7562 43.16 97.0414 43.24 102.327C43.24 102.647 43.8533 103.127 44.2533 103.235C49.4534 104.729 54.76 105.023 60.0933 104.168C82.6532 100.538 97.2135 79.1039 92.3332 56.8421C87.8269 36.2352 67.24 22.7553 46.7334 26.9461C28.1734 30.6831 15.2133 46.5386 15.16 65.544C15.1334 82.1736 15.16 98.8031 15.16 115.433C15.16 115.887 15.2133 116.314 15.2667 116.768C11.1866 116.768 7.08 116.768 3 116.768C3 98.3494 3 79.9314 3 61.5134C3.16 60.4723 3.34667 59.4313 3.48 58.3636C6.30667 37.6232 21.4267 20.6465 41.72 15.5749C44.6 14.8542 47.56 14.5072 50.4667 14C52.9467 14 55.4534 14 57.9333 14Z" fill="#FEFEFE"/>
<path d="M451 86.6046C448.254 86.6046 445.507 86.6046 442.547 86.6046C442.547 84.5492 442.547 82.5206 442.547 80.4919C442.52 72.6176 442.547 64.7431 442.467 56.8687C442.387 50.7027 437.747 45.1506 431.72 43.896C423.453 42.1609 415.054 48.8608 415.027 57.3492C415 66.5582 415.054 75.7673 415.08 84.9763C415.08 85.5102 415.08 86.0174 415.08 86.6313C412.28 86.6313 409.64 86.6313 406.867 86.6313C406.867 70.3753 406.867 54.1194 406.867 37.7299C409.507 37.7299 412.174 37.7299 415 37.7299C415 38.5307 415 39.3582 415 40.4259C417.667 38.0502 420.493 36.5821 423.694 35.7813C436.28 32.6049 449.454 41.8673 450.733 54.7866C450.76 55.1604 450.894 55.5608 450.974 55.9345C451 66.1312 451 76.3812 451 86.6046Z" fill="#FEFEFE"/>
<path d="M131.48 81.1326C131.48 89.2472 131.48 97.335 131.48 105.53C128.68 105.53 126.04 105.53 123.32 105.53C123.293 105.183 123.24 104.836 123.24 104.489C123.24 90.2881 123.186 76.1144 123.266 61.9137C123.346 49.0745 132.333 38.2372 144.867 35.7013C159.933 32.6584 174.68 43.2554 176.653 58.5237C178.6 73.5785 168.253 87.0851 153.16 88.9C145.24 89.8345 138.413 87.1119 132.547 81.8267C132.28 81.5864 132.146 81.1593 131.933 80.8123C131.773 80.9191 131.64 81.0259 131.48 81.1326ZM150.12 80.839C160.44 80.8123 168.68 72.4841 168.68 62.1273C168.653 51.7972 160.306 43.4423 150.04 43.4957C139.747 43.549 131.48 51.8772 131.506 62.2341C131.48 72.5375 139.799 80.8657 150.12 80.839Z" fill="#FEFEFE"/>
<path d="M303.72 73.0714C307.667 79.104 316.013 82.0936 323.4 80.1183C327.907 78.9172 331.507 76.3279 334.093 72.4575C336.68 68.587 337.64 64.2627 337.08 59.5381C339.88 59.5381 342.574 59.5381 345.24 59.5381C346.707 69.8683 340.547 83.3481 326.734 87.7527C313.666 91.9162 299.56 85.5103 294.04 72.9379C288.493 60.3122 293.374 45.4977 305.4 38.6376C317.854 31.5373 331.8 36.1819 338.306 43.9495C326.787 53.639 315.294 63.3285 303.72 73.0714ZM300.253 65.197C308.547 58.2302 316.6 51.4502 324.733 44.5901C318.52 42.0009 310.6 43.7359 305.56 48.7809C301.134 53.2386 299.454 58.6573 300.253 65.197Z" fill="#FEFEFE"/>
<path d="M233.4 86.6314C230.6 86.6314 227.933 86.6314 225.16 86.6314C225.16 84.9764 225.16 83.4015 225.16 81.5864C224.734 81.9334 224.493 82.1202 224.28 82.3071C209 95.5468 185.454 88.1798 180.493 68.6136C175.933 50.5692 190.76 33.4057 209.24 35.2742C222.84 36.6623 233.24 48.0067 233.373 61.6735C233.454 69.6814 233.4 77.6893 233.4 85.6971C233.4 85.964 233.4 86.2309 233.4 86.6314ZM187.934 62.0472C187.907 72.2973 196.201 80.7056 206.387 80.7589C216.68 80.7856 225.133 72.5375 225.16 62.3942C225.187 51.7971 216.974 43.4156 206.6 43.4156C196.307 43.3622 187.96 51.717 187.934 62.0472Z" fill="#FEFEFE"/>
<path d="M348.413 62.0472C348.441 47.206 360.494 35.1408 375.267 35.1408C390.094 35.1408 402.201 47.3394 402.121 62.1807C402.04 77.0486 390.013 89.0336 375.187 89.0072C360.414 88.98 348.387 76.8884 348.413 62.0472ZM375.24 80.7322C385.533 80.7322 393.907 72.404 393.907 62.1006C393.934 51.8239 385.56 43.3889 375.32 43.3622C365.054 43.3355 356.654 51.7171 356.627 61.9938C356.627 72.3239 364.974 80.7322 375.24 80.7322Z" fill="#FEFEFE"/>
<path d="M236.013 37.5698C237.64 37.5698 239.08 37.5698 240.734 37.5698C240.734 31.2436 240.734 24.9974 240.734 18.6712C243.56 18.6712 246.2 18.6712 249.001 18.6712C249.001 24.9441 249.001 31.1902 249.001 37.5698C253.187 37.5698 257.214 37.5698 261.321 37.5698C261.321 40.3458 261.321 42.9884 261.321 45.8179C257.267 45.8179 253.214 45.8179 249.027 45.8179C249.027 59.5113 249.027 73.0179 249.027 86.6046C246.253 86.6046 243.613 86.6046 240.814 86.6046C240.814 86.0174 240.814 85.5102 240.814 85.0031C240.814 72.4574 240.787 59.9118 240.84 47.3661C240.84 46.1649 240.547 45.6844 239.293 45.8179C238.254 45.9246 237.187 45.8446 236.04 45.8446C236.013 43.0685 236.013 40.4259 236.013 37.5698Z" fill="#FEFEFE"/>
<path d="M273.8 44.7234C277.72 41.2 282.2 38.7709 287.373 37.8634C289.187 37.5431 291.053 37.5163 293.026 37.3295C293.026 40.0522 293.026 42.4813 293.026 44.9103C293.026 45.8445 292.333 45.6844 291.8 45.6844C287.693 45.7377 284.013 47.0457 280.84 49.5815C276.226 53.2385 273.72 58.0432 273.64 63.969C273.56 70.9892 273.613 78.0361 273.613 85.0564C273.613 85.5368 273.613 86.0174 273.613 86.6046C270.867 86.6046 268.227 86.6046 265.479 86.6046C265.479 70.2952 265.479 54.0126 265.479 37.6765C268.067 37.6765 270.68 37.6765 273.453 37.6765C273.453 39.9721 273.453 42.2677 273.453 44.5633C273.586 44.6167 273.693 44.6701 273.8 44.7234Z" fill="#FEFEFE"/>
</g>
</g>
</svg>
