<svg width="29" height="20" viewBox="0 0 29 20" fill="none" xmlns="http://www.w3.org/2000/svg">
<g clip-path="url(#clip0_4_28)">
<mask id="mask0_4_28" style="mask-type:luminance" maskUnits="userSpaceOnUse" x="0" y="0" width="29" height="20">
<path d="M29 0H0V20H29V0Z" fill="white"/>
</mask>
<g mask="url(#mask0_4_28)">
<path d="M19.5862 0H10.4138C7.42859 0 5 2.42859 5 5.41382V14.5863C5 17.5714 7.42859 20 10.4138 20H19.5863C22.5714 20 25 17.5714 25 14.5863V5.41382C25 2.42859 22.5714 0 19.5862 0ZM15 15.4686C11.9846 15.4686 9.5314 13.0154 9.5314 10C9.5314 6.98456 11.9846 4.5314 15 4.5314C18.0154 4.5314 20.4686 6.98456 20.4686 10C20.4686 13.0154 18.0154 15.4686 15 15.4686ZM20.5994 5.82108C19.7083 5.82108 18.9835 5.09628 18.9835 4.20517C18.9835 3.31406 19.7083 2.58911 20.5994 2.58911C21.4905 2.58911 22.2154 3.31406 22.2154 4.20517C22.2154 5.09628 21.4905 5.82108 20.5994 5.82108Z" fill="white"/>
<path d="M14.9999 6.3999C13.015 6.3999 11.3999 8.01482 11.3999 9.99991C11.3999 11.9849 13.015 13.5999 14.9999 13.5999C16.985 13.5999 18.5999 11.9849 18.5999 9.99991C18.5999 8.01482 16.985 6.3999 14.9999 6.3999Z" fill="white"/>
</g>
</g>
<defs>
<clipPath id="clip0_4_28">
<rect width="29" height="20" fill="white"/>
</clipPath>
</defs>
</svg>
