<svg width="611" height="140" viewBox="0 0 611 140" fill="none" xmlns="http://www.w3.org/2000/svg">
<g clip-path="url(#clip0_11_47)">
<mask id="mask0_11_47" style="mask-type:luminance" maskUnits="userSpaceOnUse" x="0" y="0" width="611" height="140">
<path d="M610.909 0H0V140H610.909V0Z" fill="white"/>
</mask>
<g mask="url(#mask0_11_47)">
<path d="M74.9091 0C78.9455 0.727273 83.0545 1.2 87.0182 2.18182C114.364 8.94545 135.091 32.1455 138.945 60.1454C144.073 97.3818 119.855 131.418 82.9455 138.8C80.2909 139.345 77.5636 139.636 74.8727 140.036C62.5091 140.036 50.1455 140.036 37.7818 140.036C37.7818 116.582 37.7818 93.1273 37.8182 69.7091C37.8182 68.1454 37.9636 66.5455 38.2182 65.0182C40.6182 49.2727 54.9818 37.3818 70.7273 38C87.3455 38.6909 100.691 51.5273 101.745 67.8909C103.309 92.1818 78.5818 109.236 56.4364 99.1273C55.9636 98.9091 55.4909 98.7273 54.8 98.4727C54.8 105.927 54.7636 113.127 54.8727 120.327C54.8727 120.764 55.7091 121.418 56.2545 121.564C63.3455 123.6 70.5818 124 77.8545 122.836C108.618 117.891 128.473 88.6909 121.818 58.3636C115.673 30.2909 87.6 11.9273 59.6364 17.6364C34.3273 22.7273 16.6545 44.3273 16.5818 70.2182C16.5455 92.8727 16.5818 115.527 16.5818 138.182C16.5818 138.8 16.6545 139.382 16.7273 140C11.1636 140 5.56364 140 0 140C0 114.909 0 89.8182 0 64.7273C0.218182 63.3091 0.472727 61.8909 0.654545 60.4364C4.50909 32.1818 25.1273 9.05455 52.8 2.14545C56.7273 1.16364 60.7636 0.690909 64.7273 0C68.1091 0 71.5273 0 74.9091 0Z" fill="#FEFEFE"/>
<path d="M610.909 98.9091C607.164 98.9091 603.418 98.9091 599.382 98.9091C599.382 96.1091 599.382 93.3455 599.382 90.5818C599.345 79.8546 599.382 69.1273 599.273 58.4C599.164 50 592.836 42.4364 584.618 40.7273C573.345 38.3636 561.891 47.4909 561.855 59.0545C561.818 71.6 561.891 84.1455 561.927 96.6909C561.927 97.4182 561.927 98.1091 561.927 98.9455C558.109 98.9455 554.509 98.9455 550.727 98.9455C550.727 76.8 550.727 54.6546 550.727 32.3273C554.327 32.3273 557.964 32.3273 561.818 32.3273C561.818 33.4182 561.818 34.5455 561.818 36C565.455 32.7636 569.309 30.7636 573.673 29.6727C590.836 25.3455 608.8 37.9636 610.545 55.5636C610.582 56.0727 610.764 56.6182 610.873 57.1273C610.909 71.0182 610.909 84.9818 610.909 98.9091Z" fill="#FEFEFE"/>
<path d="M175.2 91.4545C175.2 102.509 175.2 113.527 175.2 124.691C171.382 124.691 167.782 124.691 164.073 124.691C164.036 124.218 163.964 123.745 163.964 123.273C163.964 103.927 163.891 84.6182 164 65.2727C164.109 47.7818 176.364 33.0182 193.455 29.5636C214 25.4182 234.109 39.8545 236.8 60.6545C239.455 81.1636 225.345 99.5636 204.764 102.036C193.964 103.309 184.655 99.6 176.655 92.4C176.291 92.0727 176.109 91.4909 175.818 91.0182C175.6 91.1636 175.418 91.3091 175.2 91.4545ZM200.618 91.0545C214.691 91.0182 225.927 79.6727 225.927 65.5636C225.891 51.4909 214.509 40.1091 200.509 40.1818C186.473 40.2545 175.2 51.6 175.236 65.7091C175.2 79.7454 186.545 91.0909 200.618 91.0545Z" fill="#FEFEFE"/>
<path d="M410.073 80.4727C415.455 88.6909 426.836 92.7636 436.909 90.0727C443.055 88.4364 447.964 84.9091 451.491 79.6364C455.018 74.3636 456.327 68.4727 455.564 62.0364C459.382 62.0364 463.055 62.0364 466.691 62.0364C468.691 76.1091 460.291 94.4727 441.455 100.473C423.636 106.145 404.4 97.4182 396.873 80.2909C389.309 63.0909 395.964 42.9091 412.364 33.5636C429.346 23.8909 448.364 30.2182 457.236 40.8C441.527 54 425.855 67.2 410.073 80.4727ZM405.345 69.7455C416.655 60.2546 427.636 51.0182 438.727 41.6727C430.255 38.1455 419.455 40.5091 412.582 47.3818C406.546 53.4546 404.255 60.8364 405.345 69.7455Z" fill="#FEFEFE"/>
<path d="M314.182 98.9455C310.364 98.9455 306.727 98.9455 302.945 98.9455C302.945 96.6909 302.945 94.5455 302.945 92.0728C302.364 92.5455 302.036 92.8 301.745 93.0546C280.909 111.091 248.8 101.055 242.036 74.4C235.818 49.8182 256.036 26.4364 281.236 28.9818C299.782 30.8728 313.964 46.3273 314.145 64.9455C314.255 75.8546 314.182 86.7637 314.182 97.6728C314.182 98.0364 314.182 98.4 314.182 98.9455ZM252.182 65.4546C252.145 79.4182 263.455 90.8728 277.345 90.9455C291.382 90.9818 302.909 79.7455 302.945 65.9273C302.982 51.4909 291.782 40.0728 277.636 40.0728C263.6 40 252.218 51.3818 252.182 65.4546Z" fill="#FEFEFE"/>
<path d="M471.018 65.4545C471.055 45.2364 487.491 28.8 507.636 28.8C527.855 28.8 544.364 45.4182 544.255 65.6364C544.145 85.8909 527.745 102.218 507.527 102.182C487.382 102.145 470.982 85.6727 471.018 65.4545ZM507.6 90.9091C521.636 90.9091 533.055 79.5636 533.055 65.5273C533.091 51.5273 521.673 40.0364 507.709 40C493.709 39.9636 482.255 51.3818 482.218 65.3818C482.218 79.4545 493.6 90.9091 507.6 90.9091Z" fill="#FEFEFE"/>
<path d="M317.745 32.1091C319.964 32.1091 321.927 32.1091 324.182 32.1091C324.182 23.4909 324.182 14.9818 324.182 6.36365C328.036 6.36365 331.636 6.36365 335.455 6.36365C335.455 14.9091 335.455 23.4182 335.455 32.1091C341.164 32.1091 346.655 32.1091 352.255 32.1091C352.255 35.8909 352.255 39.4909 352.255 43.3455C346.727 43.3455 341.2 43.3455 335.491 43.3455C335.491 62 335.491 80.4 335.491 98.9091C331.709 98.9091 328.109 98.9091 324.291 98.9091C324.291 98.1091 324.291 97.4182 324.291 96.7273C324.291 79.6364 324.255 62.5455 324.327 45.4546C324.327 43.8182 323.927 43.1636 322.218 43.3455C320.8 43.4909 319.345 43.3818 317.782 43.3818C317.745 39.6 317.745 36 317.745 32.1091Z" fill="#FEFEFE"/>
<path d="M369.273 41.8545C374.618 37.0545 380.727 33.7454 387.782 32.5091C390.255 32.0727 392.8 32.0363 395.491 31.7818C395.491 35.4909 395.491 38.8 395.491 42.1091C395.491 43.3818 394.545 43.1636 393.818 43.1636C388.218 43.2363 383.2 45.0182 378.873 48.4727C372.582 53.4545 369.164 60 369.055 68.0727C368.946 77.6363 369.018 87.2363 369.018 96.8C369.018 97.4545 369.018 98.1091 369.018 98.9091C365.273 98.9091 361.673 98.9091 357.927 98.9091C357.927 76.6909 357.927 54.5091 357.927 32.2545C361.455 32.2545 365.018 32.2545 368.8 32.2545C368.8 35.3818 368.8 38.5091 368.8 41.6363C368.982 41.7091 369.127 41.7818 369.273 41.8545Z" fill="#FEFEFE"/>
</g>
</g>
<defs>
<clipPath id="clip0_11_47">
<rect width="610.909" height="140" fill="white"/>
</clipPath>
</defs>
</svg>
