<svg width="422" height="140" viewBox="0 0 422 140" fill="none" xmlns="http://www.w3.org/2000/svg">
<g clip-path="url(#clip0_11_60)">
<path d="M340.632 45.8947C337.263 42.1053 331.368 40 323.579 40H300.211C298.526 40 297.263 41.2632 297.053 42.7368L287.579 102.526C287.368 103.789 288.211 104.842 289.474 104.842H301.474C302.526 104.842 303.579 104 303.789 102.947L306.526 86.1053C306.737 84.6316 308.211 83.3684 309.684 83.3684H317.053C332.421 83.3684 341.263 76 343.579 61.2632C344.632 54.5263 343.579 49.4737 340.632 45.8947ZM326.316 61.8947C325.053 70.3158 318.737 70.3158 312.421 70.3158H308.842L311.368 54.7368C311.579 53.8947 312.421 53.0526 313.263 53.0526H314.947C319.158 53.0526 323.158 53.0526 325.263 55.3684C326.316 56.8421 326.737 58.9474 326.316 61.8947Z" fill="#FEFEFE"/>
<path d="M393.263 61.6842H382.105C381.053 61.6842 380.421 62.3158 380.211 63.3684L379.789 66.5263L378.947 65.4737C376.632 61.8947 371.158 60.8421 365.684 60.8421C353.263 60.8421 342.737 70.1053 340.842 83.3684C339.789 89.8947 341.263 96.2105 345.053 100.421C348.421 104.421 353.263 106.105 359.158 106.105C369.053 106.105 374.526 99.7895 374.526 99.7895L374.105 102.947C373.895 104.211 374.737 105.263 376 105.263H386.105C387.789 105.263 389.053 104 389.263 102.526L395.368 64.4211C395.368 62.7368 394.526 61.6842 393.263 61.6842ZM377.684 83.3684C376.632 89.6842 371.579 94.1053 365.053 94.1053C361.895 94.1053 359.158 93.0526 357.474 91.1579C355.789 89.2632 355.158 86.3158 355.789 83.3684C356.842 77.0526 361.895 72.6316 368.211 72.6316C371.368 72.6316 373.895 73.6842 375.579 75.5789C377.474 77.4737 378.316 80.2105 377.684 83.3684Z" fill="#FEFEFE"/>
<path d="M419.158 40H408.421C407.368 40 406.737 40.6316 406.526 41.6842L397.053 102.526C396.842 103.789 397.684 104.842 398.947 104.842H408.632C410.316 104.842 411.579 103.789 411.79 102.105L421.053 42.3158C421.263 41.0526 420.211 40 419.158 40Z" fill="#FEFEFE"/>
<path d="M174.526 45.8947C171.158 42.1053 165.263 40 157.474 40H134.105C132.421 40 131.158 41.2632 130.947 42.7368L121.474 102.526C121.263 103.789 122.105 104.842 123.368 104.842H134.526C136.211 104.842 137.474 103.789 137.684 102.105L140.211 85.8947C140.421 84.421 141.895 83.1579 143.368 83.1579H150.737C166.105 83.1579 174.947 75.7895 177.263 61.0526C178.526 54.5263 177.474 49.4737 174.526 45.8947ZM160.211 61.8947C158.947 70.3158 152.632 70.3158 146.316 70.3158H142.737L145.263 54.7368C145.474 53.8947 146.316 53.0526 147.158 53.0526H148.842C153.053 53.0526 157.053 53.0526 159.158 55.3684C160.211 56.8421 160.632 58.9474 160.211 61.8947Z" fill="#FEFEFE"/>
<path d="M227.158 61.6842H216C214.947 61.6842 214.316 62.3158 214.105 63.3684L213.684 66.5263L212.842 65.4737C210.526 61.8947 205.053 60.8421 199.579 60.8421C187.158 60.8421 176.632 70.1053 174.737 83.3684C173.684 89.8947 175.158 96.2105 178.947 100.421C182.316 104.421 187.158 106.105 193.053 106.105C202.947 106.105 208.421 99.7895 208.421 99.7895L208 102.947C207.789 104.211 208.632 105.263 209.895 105.263H220C221.684 105.263 222.947 104 223.158 102.526L229.263 64.4211C229.263 62.7368 228.211 61.6842 227.158 61.6842ZM211.579 83.3684C210.526 89.6842 205.474 94.1053 198.947 94.1053C195.789 94.1053 193.053 93.0526 191.368 91.1579C189.684 89.2632 189.053 86.3158 189.684 83.3684C190.737 77.0526 195.789 72.6316 202.105 72.6316C205.263 72.6316 207.789 73.6842 209.474 75.5789C211.368 77.4737 212 80.2105 211.579 83.3684Z" fill="#FEFEFE"/>
<path d="M286.526 61.6842H275.368C274.316 61.6842 273.263 62.3158 272.632 63.1579L257.263 85.8947L250.526 64C250.105 62.5263 248.842 61.6842 247.368 61.6842H236.421C235.158 61.6842 234.105 62.9474 234.526 64.2105L246.947 100.421L235.368 116.842C234.526 118.105 235.368 120 237.053 120H248.211C249.263 120 250.316 119.579 250.947 118.526L288.211 64.6316C289.053 63.3684 288 61.6842 286.526 61.6842Z" fill="#FEFEFE"/>
<path d="M83.1579 46.7368C81.8947 45.2632 80.4211 44.2105 78.5263 43.1579C78.5263 43.7895 78.3158 44.4211 78.1053 45.0526C77.8947 45.6842 77.8948 46.3158 77.6842 46.7368C73.6842 64.6316 62.3158 72.2105 47.579 73.8947C46.5263 74.1053 45.6842 74.1053 44.6316 74.1053C43.579 74.1053 42.3158 74.1053 41.2632 74.1053H31.7895C29.4737 74.1053 27.579 75.7895 27.3684 77.8947L23.1579 104.842L22.5263 108.421L21.0526 117.053C20.8421 118.526 21.8947 119.789 23.3684 119.789H40C41.8947 119.789 43.579 118.316 44 116.421L44.2105 115.579L47.3684 95.7895L47.579 94.7368C47.7895 92.8421 49.4737 91.3684 51.579 91.3684H54.1053C70.3158 91.3684 82.7369 84.8421 86.5263 65.8947C88 57.8947 87.1579 51.3684 83.1579 46.7368Z" fill="#C9CED1"/>
<path d="M27.3684 78.1053L27.579 77.0526L32.8421 43.3684C33.0526 42.1053 33.8947 40.8421 35.1579 40.4211C35.7895 40.2105 36.2105 40 36.8421 40H61.8947C64.8421 40 67.579 40.2105 70.1053 40.6316C70.7368 40.8421 71.579 40.8421 72.2105 41.0526C72.8421 41.2632 73.4737 41.4737 74.1053 41.4737C74.3158 41.4737 74.5263 41.6842 74.7368 41.6842H74.9474C74.9474 41.6842 74.9474 41.6842 75.1579 41.6842C76.4211 42.1053 77.4737 42.5263 78.5263 43.1579C79.7895 35.1579 78.5263 29.6842 74.1053 24.8421C69.4737 19.3684 60.8421 17.0526 49.8947 17.0526H17.8947C15.579 17.0526 13.6842 18.7369 13.4737 20.8421L6.26401e-06 105.263C-0.21052 106.947 1.05264 108.421 2.73685 108.421H22.5263L23.1579 104.842L27.3684 78.1053Z" fill="#FEFEFE"/>
<path d="M78.5263 43.1579C77.4737 42.5263 76.4211 42.1053 75.1579 41.6842C75.1579 41.6842 75.1579 41.6842 74.9474 41.6842H74.7369C74.5263 41.6842 74.3158 41.4737 74.1053 41.4737C73.4737 41.2632 72.8421 41.0526 72.2105 41.0526C71.579 40.8421 70.7369 40.8421 70.1053 40.6316C67.579 40.2105 64.8421 40 61.8948 40H36.6316C36 40 35.3684 40.2105 34.9474 40.4211C33.8948 41.0526 32.8421 42.1053 32.6316 43.3684L27.3684 77.0526V78.1053C27.7895 75.7895 29.6842 74.3158 31.7895 74.3158H41.2632C42.3158 74.3158 43.579 74.3158 44.6316 74.3158C45.6842 74.3158 46.7369 74.1053 47.579 74.1053C62.3158 72.4211 73.6842 64.8421 77.8948 47.1579C78.1053 46.5263 78.1053 46.1053 78.3158 45.4737C78.3158 44.4211 78.5263 43.7895 78.5263 43.1579Z" fill="#FEFEFE"/>
</g>
<defs>
<clipPath id="clip0_11_60">
<rect width="421.895" height="140" fill="white"/>
</clipPath>
</defs>
</svg>
