<svg width="436" height="88" viewBox="0 0 436 88" fill="none" xmlns="http://www.w3.org/2000/svg">
<g clip-path="url(#clip0_9_100)">
<path d="M80.1193 26.4369C80.1038 15.2006 71.3778 5.99161 61.1397 2.66871C48.4259 -1.45749 31.6579 -0.859389 19.5178 4.88501C4.80376 11.8485 0.18155 27.1018 0.00930347 42.3144C-0.132069 54.8218 1.11265 87.764 19.6405 87.999C33.4072 88.174 35.4571 70.384 41.827 61.8162C46.359 55.7206 52.1942 53.9989 59.3774 52.2161C71.7231 49.1515 80.1371 39.3803 80.1193 26.4369Z" fill="white"/>
<path d="M115.958 24.9522C115.958 22.6959 117.631 21.1669 120.244 21.1669H132.735C144.063 21.1669 151.762 27.4242 151.762 36.5979C151.762 45.7717 144.136 52.3186 132.735 52.3186H130.995C126.634 52.3186 124.383 54.575 124.383 58.2122V68.4771C124.383 71.3868 122.71 73.2054 120.171 73.2054C117.631 73.2054 115.958 71.3868 115.958 68.4771V24.9522ZM124.383 37.9855C124.383 42.5723 126.708 44.7546 131.136 44.7546H132.224C138.472 44.7546 143.041 42.2086 143.041 36.6047C143.041 31.0007 138.466 28.4547 132.224 28.4547H131.136C126.708 28.4547 124.383 30.637 124.383 35.2239V37.9922V37.9855ZM151.762 69.2112C151.762 71.6158 153.435 73.2121 155.975 73.2121C157.648 73.2121 159.173 72.121 160.04 69.8646L161.565 65.7896C162.801 62.5162 164.978 60.9872 167.377 60.9872H181.177C183.576 60.9872 185.753 62.5162 186.989 65.7896L188.514 69.8646C189.387 72.121 190.913 73.2121 192.579 73.2121C195.118 73.2121 196.791 71.6091 196.791 69.2112C196.791 68.5579 196.644 67.7564 196.355 66.9549L179.867 24.0093C178.852 21.3892 176.528 20.0757 174.277 20.0757C172.026 20.0757 169.701 21.3892 168.687 24.0093L152.199 66.9549C151.91 67.7564 151.762 68.5579 151.762 69.2112ZM167.807 49.7052C167.807 48.9037 168.022 48.1763 168.384 47.0851L171.509 38.4233C172.087 36.7461 173.108 35.9513 174.27 35.9513C175.432 35.9513 176.447 36.7529 177.032 38.4233L180.156 47.0851C180.519 48.1763 180.734 48.9037 180.734 49.7052C180.734 51.8875 179.497 53.4165 176.232 53.4165H172.308C169.043 53.4165 167.807 51.8875 167.807 49.7052ZM194.023 25.1004C194.023 22.7699 195.696 21.1669 198.384 21.1669H231.79C234.477 21.1669 236.15 22.7699 236.15 25.1004C236.15 27.4309 234.477 29.034 231.79 29.034H226.2C221.772 29.034 219.373 31.2904 219.373 36.4565V68.4097C219.373 71.3935 217.7 73.2121 215.087 73.2121C212.473 73.2121 210.8 71.3935 210.8 68.4097V36.4565C210.8 31.2904 208.401 29.034 203.974 29.034H198.384C195.696 29.034 194.023 27.4309 194.023 25.1004ZM243.991 68.4838C243.991 71.3935 245.664 73.2121 248.204 73.2121C250.743 73.2121 252.416 71.3935 252.416 68.4838V56.9122C252.416 53.6388 254.304 52.2512 256.629 52.2512H257.213C258.739 52.2512 260.264 53.1942 261.204 54.5817L272.243 70.8143C273.258 72.3433 274.568 73.2189 276.234 73.2189C278.411 73.2189 280.158 71.4003 280.158 69.218C280.158 68.3424 279.869 67.3994 279.217 66.4497L271.88 56.1107C271.007 54.8714 270.644 53.8543 270.644 52.9787C270.644 51.1601 272.243 49.8467 274.131 48.4659C277.544 45.9199 281.246 42.5723 281.246 36.1669C281.246 27.2154 274.272 21.1736 262.803 21.1736H248.21C245.597 21.1736 243.998 22.7026 243.998 24.959V68.4905L243.991 68.4838ZM252.409 37.3321V35.1498C252.409 30.4215 254.882 28.4547 258.658 28.4547H262.286C268.528 28.4547 272.525 30.7852 272.525 36.1736C272.525 41.562 268.313 44.0339 262.071 44.0339H258.658C254.882 44.0339 252.409 42.0672 252.409 37.3388V37.3321ZM291.99 68.3424V24.9522C291.99 22.6959 293.589 21.1669 296.202 21.1669H323.655C326.269 21.1669 327.868 22.6959 327.868 24.9522C327.868 27.2086 326.269 28.7376 323.655 28.7376H306.301C302.888 28.7376 300.415 30.7785 300.415 34.6312V36.2342C300.415 40.0937 302.888 42.1278 306.301 42.1278H319.738C322.352 42.1278 323.951 43.6567 323.951 45.9131C323.951 48.1695 322.352 49.6985 319.738 49.6985H306.811C303.398 49.6985 300.422 51.8067 300.422 56.104V58.1448C300.422 62.4421 303.398 64.5503 306.811 64.5503H323.662C326.276 64.5503 327.875 66.0792 327.875 68.3356C327.875 70.592 326.276 72.121 323.662 72.121H296.209C293.596 72.121 291.996 70.592 291.996 68.3356L291.99 68.3424ZM332.874 46.6473C332.874 30.9266 344.638 20.0757 358.438 20.0757C372.239 20.0757 384.003 30.9199 384.003 46.6473C384.003 62.3747 372.239 73.2189 358.438 73.2189C344.638 73.2189 332.874 62.3747 332.874 46.6473ZM342.461 46.6473C342.461 57.7137 348.999 64.7726 358.438 64.7726C367.878 64.7726 374.416 57.7137 374.416 46.6473C374.416 35.5809 367.878 28.5221 358.438 28.5221C348.999 28.5221 342.461 35.5068 342.461 46.6473ZM394.095 68.4838C394.095 71.3935 395.768 73.2121 398.308 73.2121C400.847 73.2121 402.52 71.3935 402.52 68.4838V46.2095C402.52 43.5153 404.119 42.2086 405.786 42.2086C407.096 42.2086 408.184 42.936 408.984 44.2495L422.925 67.6149C424.813 70.821 426.553 73.2189 430.114 73.2189C433.675 73.2189 436 70.7469 436 66.7393V24.8108C436 21.9011 434.327 20.0825 431.787 20.0825C429.248 20.0825 427.575 21.9011 427.575 24.8108V47.0851C427.575 49.7793 425.976 51.086 424.309 51.086C423.006 51.086 421.911 50.3586 421.111 49.0451L407.17 25.6797C405.282 22.4736 403.542 20.0757 399.981 20.0757C396.42 20.0757 394.095 22.5477 394.095 26.5553V68.4838Z" fill="white"/>
</g>
<defs>
<clipPath id="clip0_9_100">
<rect width="436" height="88.0003" fill="white"/>
</clipPath>
</defs>
</svg>
