<svg width="436" height="140" viewBox="0 0 436 140" fill="none" xmlns="http://www.w3.org/2000/svg">
<path d="M80.1193 52.4369C80.1038 41.2006 71.3778 31.9916 61.1397 28.6687C48.4259 24.5425 31.6579 25.1406 19.5178 30.885C4.80376 37.8485 0.18155 53.1018 0.00930339 68.3144C-0.132069 80.8218 1.11265 113.764 19.6405 113.999C33.4072 114.174 35.4571 96.384 41.827 87.8162C46.359 81.7206 52.1942 79.9989 59.3774 78.2161C71.7231 75.1515 80.1371 65.3803 80.1193 52.4369Z" fill="white"/>
<path d="M115.958 50.9522C115.958 48.6959 117.631 47.1669 120.244 47.1669H132.735C144.063 47.1669 151.762 53.4242 151.762 62.5979C151.762 71.7717 144.136 78.3186 132.735 78.3186H130.995C126.634 78.3186 124.383 80.575 124.383 84.2122V94.4771C124.383 97.3868 122.71 99.2054 120.171 99.2054C117.631 99.2054 115.958 97.3868 115.958 94.4771V50.9522ZM124.383 63.9855C124.383 68.5723 126.708 70.7546 131.136 70.7546H132.224C138.472 70.7546 143.041 68.2086 143.041 62.6047C143.041 57.0007 138.466 54.4547 132.224 54.4547H131.136C126.708 54.4547 124.383 56.637 124.383 61.2239V63.9922V63.9855ZM151.762 95.2112C151.762 97.6158 153.435 99.2121 155.975 99.2121C157.648 99.2121 159.173 98.121 160.04 95.8646L161.565 91.7896C162.801 88.5162 164.978 86.9872 167.377 86.9872H181.177C183.576 86.9872 185.753 88.5162 186.989 91.7896L188.514 95.8646C189.387 98.121 190.913 99.2121 192.579 99.2121C195.118 99.2121 196.791 97.6091 196.791 95.2112C196.791 94.5579 196.644 93.7564 196.355 92.9549L179.867 50.0093C178.852 47.3892 176.528 46.0757 174.277 46.0757C172.026 46.0757 169.701 47.3892 168.687 50.0093L152.199 92.9549C151.91 93.7564 151.762 94.5579 151.762 95.2112ZM167.807 75.7052C167.807 74.9037 168.022 74.1763 168.384 73.0851L171.509 64.4233C172.087 62.7461 173.108 61.9513 174.27 61.9513C175.432 61.9513 176.447 62.7529 177.032 64.4233L180.156 73.0851C180.519 74.1763 180.734 74.9037 180.734 75.7052C180.734 77.8875 179.497 79.4165 176.232 79.4165H172.308C169.043 79.4165 167.807 77.8875 167.807 75.7052ZM194.023 51.1004C194.023 48.7699 195.696 47.1669 198.384 47.1669H231.79C234.477 47.1669 236.15 48.7699 236.15 51.1004C236.15 53.4309 234.477 55.034 231.79 55.034H226.2C221.772 55.034 219.373 57.2904 219.373 62.4565V94.4097C219.373 97.3935 217.7 99.2121 215.087 99.2121C212.473 99.2121 210.8 97.3935 210.8 94.4097V62.4565C210.8 57.2904 208.401 55.034 203.974 55.034H198.384C195.696 55.034 194.023 53.4309 194.023 51.1004ZM243.991 94.4838C243.991 97.3935 245.664 99.2121 248.204 99.2121C250.743 99.2121 252.416 97.3935 252.416 94.4838V82.9122C252.416 79.6388 254.304 78.2512 256.629 78.2512H257.213C258.739 78.2512 260.264 79.1942 261.204 80.5817L272.243 96.8143C273.258 98.3433 274.568 99.2189 276.234 99.2189C278.411 99.2189 280.158 97.4003 280.158 95.218C280.158 94.3424 279.869 93.3994 279.217 92.4497L271.88 82.1107C271.007 80.8714 270.644 79.8543 270.644 78.9787C270.644 77.1601 272.243 75.8467 274.131 74.4659C277.544 71.9199 281.246 68.5723 281.246 62.1669C281.246 53.2154 274.272 47.1736 262.803 47.1736H248.21C245.597 47.1736 243.998 48.7026 243.998 50.959V94.4905L243.991 94.4838ZM252.409 63.3321V61.1498C252.409 56.4215 254.882 54.4547 258.658 54.4547H262.286C268.528 54.4547 272.525 56.7852 272.525 62.1736C272.525 67.562 268.313 70.0339 262.071 70.0339H258.658C254.882 70.0339 252.409 68.0672 252.409 63.3388V63.3321ZM291.99 94.3424V50.9522C291.99 48.6959 293.589 47.1669 296.202 47.1669H323.655C326.269 47.1669 327.868 48.6959 327.868 50.9522C327.868 53.2086 326.269 54.7376 323.655 54.7376H306.301C302.888 54.7376 300.415 56.7785 300.415 60.6312V62.2342C300.415 66.0937 302.888 68.1278 306.301 68.1278H319.738C322.352 68.1278 323.951 69.6567 323.951 71.9131C323.951 74.1695 322.352 75.6985 319.738 75.6985H306.811C303.398 75.6985 300.422 77.8067 300.422 82.104V84.1448C300.422 88.4421 303.398 90.5503 306.811 90.5503H323.662C326.276 90.5503 327.875 92.0792 327.875 94.3356C327.875 96.592 326.276 98.121 323.662 98.121H296.209C293.596 98.121 291.996 96.592 291.996 94.3356L291.99 94.3424ZM332.874 72.6473C332.874 56.9266 344.638 46.0757 358.438 46.0757C372.239 46.0757 384.003 56.9199 384.003 72.6473C384.003 88.3747 372.239 99.2189 358.438 99.2189C344.638 99.2189 332.874 88.3747 332.874 72.6473ZM342.461 72.6473C342.461 83.7137 348.999 90.7726 358.438 90.7726C367.878 90.7726 374.416 83.7137 374.416 72.6473C374.416 61.5809 367.878 54.5221 358.438 54.5221C348.999 54.5221 342.461 61.5068 342.461 72.6473ZM394.095 94.4838C394.095 97.3935 395.768 99.2121 398.308 99.2121C400.847 99.2121 402.52 97.3935 402.52 94.4838V72.2095C402.52 69.5153 404.119 68.2086 405.786 68.2086C407.096 68.2086 408.184 68.936 408.984 70.2495L422.925 93.6149C424.813 96.821 426.553 99.2189 430.114 99.2189C433.675 99.2189 436 96.7469 436 92.7393V50.8108C436 47.9011 434.327 46.0825 431.787 46.0825C429.248 46.0825 427.575 47.9011 427.575 50.8108V73.0851C427.575 75.7793 425.976 77.086 424.309 77.086C423.006 77.086 421.911 76.3586 421.111 75.0451L407.17 51.6797C405.282 48.4736 403.542 46.0757 399.981 46.0757C396.42 46.0757 394.095 48.5477 394.095 52.5553V94.4838Z" fill="white"/>
</svg>
