<svg width="436" height="140" viewBox="0 0 436 140" fill="none" xmlns="http://www.w3.org/2000/svg">
<mask id="mask0_1_2" style="mask-type:luminance" maskUnits="userSpaceOnUse" x="7" y="0" width="422" height="140">
<path d="M429 0H7V140H429V0Z" fill="white"/>
</mask>
<g mask="url(#mask0_1_2)">
<path d="M347.717 45.8947C344.347 42.1053 338.45 40 330.66 40H307.286C305.6 40 304.337 41.2632 304.127 42.7368L294.651 102.526C294.44 103.789 295.283 104.842 296.546 104.842H308.549C309.601 104.842 310.655 104 310.865 102.947L313.602 86.1053C313.813 84.6316 315.288 83.3684 316.761 83.3684H324.132C339.504 83.3684 348.348 76 350.665 61.2632C351.718 54.5263 350.664 49.4737 347.717 45.8947ZM333.397 61.8947C332.134 70.3158 325.816 70.3158 319.499 70.3158H315.919L318.446 54.7368C318.657 53.8947 319.499 53.0526 320.341 53.0526H322.025C326.237 53.0526 330.238 53.0526 332.344 55.3684C333.397 56.8421 333.818 58.9474 333.397 61.8947Z" fill="#FEFEFE"/>
<path d="M400.361 61.6842H389.2C388.148 61.6842 387.516 62.3158 387.306 63.3684L386.884 66.5263L386.041 65.4737C383.726 61.8947 378.25 60.8421 372.775 60.8421C360.351 60.8421 349.822 70.1053 347.927 83.3684C346.874 89.8947 348.348 96.2105 352.139 100.421C355.508 104.421 360.351 106.105 366.247 106.105C376.145 106.105 381.619 99.7895 381.619 99.7895L381.198 102.947C380.988 104.211 381.83 105.263 383.094 105.263H393.201C394.886 105.263 396.15 104 396.36 102.526L402.466 64.4211C402.466 62.7368 401.624 61.6842 400.361 61.6842ZM384.778 83.3684C383.726 89.6842 378.671 94.1053 372.144 94.1053C368.985 94.1053 366.247 93.0526 364.563 91.1579C362.878 89.2632 362.246 86.3158 362.878 83.3684C363.931 77.0526 368.985 72.6316 375.303 72.6316C378.46 72.6316 380.988 73.6842 382.672 75.5789C384.568 77.4737 385.41 80.2105 384.778 83.3684Z" fill="#FEFEFE"/>
<path d="M426.262 40H415.523C414.469 40 413.838 40.6316 413.627 41.6842L404.152 102.526C403.941 103.789 404.783 104.842 406.046 104.842H415.734C417.418 104.842 418.681 103.789 418.892 102.105L428.158 42.3158C428.368 41.0526 427.316 40 426.262 40Z" fill="#FEFEFE"/>
<path d="M181.569 45.8947C178.201 42.1053 172.304 40 164.513 40H141.138C139.454 40 138.191 41.2632 137.98 42.7368L128.504 102.526C128.293 103.789 129.135 104.842 130.399 104.842H141.559C143.245 104.842 144.508 103.789 144.718 102.105L147.246 85.8947C147.456 84.421 148.93 83.1579 150.404 83.1579H157.775C173.146 83.1579 181.991 75.7895 184.307 61.0526C185.57 54.5263 184.518 49.4737 181.569 45.8947ZM167.251 61.8947C165.987 70.3158 159.67 70.3158 153.352 70.3158H149.773L152.299 54.7368C152.51 53.8947 153.352 53.0526 154.195 53.0526H155.879C160.091 53.0526 164.092 53.0526 166.198 55.3684C167.251 56.8421 167.672 58.9474 167.251 61.8947Z" fill="#FEFEFE"/>
<path d="M234.215 61.6842H223.054C222.001 61.6842 221.369 62.3158 221.158 63.3684L220.737 66.5263L219.895 65.4737C217.578 61.8947 212.104 60.8421 206.629 60.8421C194.205 60.8421 183.676 70.1053 181.78 83.3684C180.727 89.8947 182.202 96.2105 185.992 100.421C189.361 104.421 194.205 106.105 200.101 106.105C209.998 106.105 215.473 99.7895 215.473 99.7895L215.052 102.947C214.841 104.211 215.684 105.263 216.947 105.263H227.055C228.739 105.263 230.003 104 230.214 102.526L236.32 64.4211C236.32 62.7368 235.268 61.6842 234.215 61.6842ZM218.632 83.3684C217.578 89.6842 212.525 94.1053 205.997 94.1053C202.838 94.1053 200.101 93.0526 198.416 91.1579C196.731 89.2632 196.1 86.3158 196.731 83.3684C197.784 77.0526 202.838 72.6316 209.155 72.6316C212.314 72.6316 214.841 73.6842 216.526 75.5789C218.421 77.4737 219.053 80.2105 218.632 83.3684Z" fill="#FEFEFE"/>
<path d="M293.597 61.6842H282.437C281.384 61.6842 280.331 62.3158 279.7 63.1579L264.327 85.8947L257.588 64C257.167 62.5263 255.904 61.6842 254.43 61.6842H243.48C242.217 61.6842 241.163 62.9474 241.584 64.2105L254.008 100.421L242.427 116.842C241.584 118.105 242.427 120 244.112 120H255.273C256.325 120 257.378 119.579 258.009 118.526L295.283 64.6316C296.125 63.3684 295.072 61.6842 293.597 61.6842Z" fill="#FEFEFE"/>
<path d="M90.1786 46.7368C88.9151 45.2632 87.4411 44.2105 85.5458 43.1579C85.5458 43.7895 85.3353 44.4211 85.1247 45.0526C84.9141 45.6842 84.9142 46.3158 84.7035 46.7368C80.7025 64.6316 69.3313 72.2105 54.5908 73.8947C53.5379 74.1053 52.6956 74.1053 51.6427 74.1053C50.5898 74.1053 49.3263 74.1053 48.2735 74.1053H38.7974C36.481 74.1053 34.5859 75.7895 34.3752 77.8947L30.1637 104.842L29.5319 108.421L28.0578 117.053C27.8473 118.526 28.9002 119.789 30.3742 119.789H47.01C48.9051 119.789 50.5898 118.316 51.011 116.421L51.2215 115.579L54.3802 95.7895L54.5908 94.7368C54.8014 92.8421 56.486 91.3684 58.5918 91.3684H61.1188C77.3333 91.3684 89.7575 84.8421 93.5478 65.8947C95.0219 57.8947 94.1796 51.3684 90.1786 46.7368Z" fill="#C9CED1"/>
<path d="M34.3752 78.1053L34.5859 77.0526L39.8503 43.3684C40.0608 42.1053 40.9031 40.8421 42.1667 40.4211C42.7984 40.2105 43.2195 40 43.8513 40H68.9101C71.8582 40 74.5958 40.2105 77.1228 40.6316C77.7544 40.8421 78.5968 40.8421 79.2285 41.0526C79.8602 41.2632 80.492 41.4737 81.1238 41.4737C81.3343 41.4737 81.5449 41.6842 81.7554 41.6842H81.9661C81.9661 41.6842 81.9661 41.6842 82.1766 41.6842C83.4401 42.1053 84.493 42.5263 85.5459 43.1579C86.8094 35.1579 85.5459 29.6842 81.1238 24.8421C76.491 19.3684 67.8572 17.0526 56.9071 17.0526H24.8992C22.5829 17.0526 20.6876 18.7369 20.4771 20.8421L7.00001 105.263C6.78943 106.947 8.05291 108.421 9.73754 108.421H29.5319L30.1637 104.842L34.3752 78.1053Z" fill="#FEFEFE"/>
<path d="M85.5458 43.1579C84.493 42.5263 83.4401 42.1053 82.1766 41.6842C82.1766 41.6842 82.1766 41.6842 81.9661 41.6842H81.7555C81.5449 41.6842 81.3343 41.4737 81.1237 41.4737C80.492 41.2632 79.8602 41.0526 79.2285 41.0526C78.5968 40.8421 77.7545 40.8421 77.1228 40.6316C74.5958 40.2105 71.8582 40 68.9102 40H43.6407C43.009 40 42.3772 40.2105 41.9561 40.4211C40.9032 41.0526 39.8503 42.1053 39.6397 43.3684L34.3752 77.0526V78.1053C34.7964 75.7895 36.6916 74.3158 38.7974 74.3158H48.2735C49.3263 74.3158 50.5898 74.3158 51.6427 74.3158C52.6956 74.3158 53.7485 74.1053 54.5908 74.1053C69.3313 72.4211 80.7025 64.8421 84.9142 47.1579C85.1247 46.5263 85.1247 46.1053 85.3353 45.4737C85.3353 44.4211 85.5458 43.7895 85.5458 43.1579Z" fill="#FEFEFE"/>
</g>
</svg>
