<svg width="466" height="141" viewBox="0 0 466 141" fill="none" xmlns="http://www.w3.org/2000/svg">
<g clip-path="url(#clip0_11_37)">
<path d="M70.3999 0.600006C33.6999 0.600006 3.59995 28.9 0.699951 64.9L38.1999 80.4C41.3999 78.2 45.1999 77 49.2999 77C49.6999 77 49.9999 77 50.3999 77L67.0999 52.8C67.0999 52.7 67.0999 52.6 67.0999 52.5C67.0999 38 78.8999 26.1 93.4999 26.1C108 26.1 119.9 37.9 119.9 52.5C119.9 67.1 108.1 78.9 93.4999 78.9C93.2999 78.9 93.0999 78.9 92.8999 78.9L69.0999 95.9C69.0999 96.2 69.0999 96.5 69.0999 96.8C69.0999 107.7 60.1999 116.6 49.2999 116.6C39.6999 116.6 31.6999 109.8 29.8999 100.7L3.09995 89.6C11.3999 119 38.3999 140.5 70.3999 140.5C109 140.5 140.3 109.2 140.3 70.6C140.3 31.9 109 0.600006 70.3999 0.600006Z" fill="white"/>
<path d="M44.5 106.7L35.9 103.2C37.4 106.4 40.1 109 43.6 110.5C51.2 113.6 59.9 110.1 63 102.5C64.5 98.8 64.5 94.8 63 91.1C61.5 87.4 58.6 84.6 55 83C51.4 81.5 47.5 81.5 44.1 82.8L53 86.5C58.6 88.8 61.2 95.2 58.9 100.8C56.5 106.4 50.1 109.1 44.5 106.7Z" fill="white"/>
<path d="M111 52.5C111 42.8 103.1 34.9 93.4 34.9C83.7 34.9 75.8 42.8 75.8 52.5C75.8 62.2 83.7 70.1 93.4 70.1C103.1 70.1 111 62.2 111 52.5ZM80.3 52.5C80.3 45.2 86.2 39.3 93.5 39.3C100.8 39.3 106.7 45.2 106.7 52.5C106.7 59.8 100.8 65.7 93.5 65.7C86.2 65.7 80.3 59.8 80.3 52.5Z" fill="white"/>
<path d="M215 48.5L210.3 56.7C206.7 54.2 201.8 52.7 197.5 52.7C192.6 52.7 189.6 54.7 189.6 58.3C189.6 62.7 195 63.7 202.9 66.6C211.5 69.6 216.4 73.2 216.4 81C216.4 91.7 208 97.8 195.8 97.8C189.9 97.8 182.7 96.3 177.3 92.9L180.7 83.8C185.2 86.2 190.5 87.5 195.2 87.5C201.6 87.5 204.7 85.1 204.7 81.6C204.7 77.6 200.1 76.4 192.6 73.9C184.1 71 178.1 67.3 178.1 58.6C178.1 48.8 185.9 43.2 197.2 43.2C205.1 43.3 211.5 45.8 215 48.5Z" fill="white"/>
<path d="M251.6 53.7V96.9H240.6V53.7H224.6V44.2H267.6V53.7H251.6Z" fill="white"/>
<path d="M290.8 53.7V65.5H311.9V75H290.8V87.4H315.3V96.9H279.8V44.2H315.3V53.7H290.8Z" fill="white"/>
<path d="M339.9 86.7L336.4 96.9H324.8L344.6 44.2H355.7L376 96.9H364L360.4 86.7H339.9ZM350.1 56.8L342.9 77.9H357.5L350.1 56.8Z" fill="white"/>
<path d="M432.7 64.6L418.3 95.4H412L397.9 64.9V96.9H387.3V44.2H397.8L415.5 82.3L432.6 44.2H443.3V96.9H432.7V64.6Z" fill="white"/>
<path d="M464.6 50.9C464.6 55.4 461.2 58.2 457.3 58.2C453.4 58.2 450 55.4 450 50.9C450 46.4 453.4 43.6 457.3 43.6C461.2 43.5 464.6 46.3 464.6 50.9ZM451.2 50.9C451.2 54.7 453.9 57.1 457.3 57.1C460.6 57.1 463.4 54.7 463.4 50.9C463.4 47.1 460.7 44.8 457.3 44.8C454 44.7 451.2 47.1 451.2 50.9ZM457.4 47.1C459.3 47.1 459.9 48.1 459.9 49.2C459.9 50.2 459.3 50.9 458.6 51.2L460.3 54.4H458.9L457.5 51.6H456V54.4H454.8V47.2H457.4V47.1ZM456 50.5H457.3C458.1 50.5 458.6 50 458.6 49.3C458.6 48.6 458.2 48.2 457.3 48.2H456V50.5Z" fill="white"/>
</g>
<defs>
<clipPath id="clip0_11_37">
<rect width="465" height="140" fill="white" transform="translate(0.5 0.5)"/>
</clipPath>
</defs>
</svg>
