<svg width="291" height="88" viewBox="0 0 291 88" fill="none" xmlns="http://www.w3.org/2000/svg">
<g clip-path="url(#clip0_9_86)">
<mask id="mask0_9_86" style="mask-type:luminance" maskUnits="userSpaceOnUse" x="0" y="0" width="291" height="88">
<path d="M290.688 0.312012H0.312256V87.6879H290.688V0.312012Z" fill="white"/>
</mask>
<g mask="url(#mask0_9_86)">
<path d="M43.9622 0.374512C21.0444 0.374512 2.24808 18.0369 0.437134 40.505L23.8545 50.1788C25.8528 48.8057 28.2257 48.0568 30.786 48.0568C31.0358 48.0568 31.2232 48.0568 31.4729 48.0568L41.9015 32.9532C41.9015 32.8908 41.9015 32.8284 41.9015 32.766C41.9015 23.7164 49.2701 16.2894 58.3873 16.2894C67.4421 16.2894 74.8732 23.6539 74.8732 32.766C74.8732 41.8781 67.5045 49.2426 58.3873 49.2426C58.2624 49.2426 58.1375 49.2426 58.0126 49.2426L43.1504 59.8525C43.1504 60.0398 43.1504 60.227 43.1504 60.4142C43.1504 67.2171 37.5927 72.7717 30.786 72.7717C24.7912 72.7717 19.7955 68.5277 18.6714 62.8483L1.93585 55.9206C7.11886 74.2695 23.9794 87.688 43.9622 87.688C68.0666 87.688 87.6123 68.1532 87.6123 44.0624C87.6123 19.9093 68.0666 0.374512 43.9622 0.374512Z" fill="white"/>
<path d="M27.7887 66.5931L22.4183 64.4087C23.355 66.4058 25.0411 68.0285 27.2267 68.9647C31.9726 70.8994 37.4055 68.715 39.3413 63.9718C40.278 61.6626 40.278 59.1661 39.3413 56.8569C38.4046 54.5477 36.5937 52.8002 34.3456 51.8016C32.0975 50.8654 29.6621 50.8654 27.5389 51.6768L33.0967 53.986C36.5937 55.4214 38.2173 59.4158 36.781 62.9108C35.2823 66.4058 31.2857 68.0909 27.7887 66.5931Z" fill="white"/>
<path d="M69.3155 32.7659C69.3155 26.712 64.3822 21.7815 58.3249 21.7815C52.2676 21.7815 47.3344 26.712 47.3344 32.7659C47.3344 38.8198 52.2676 43.7503 58.3249 43.7503C64.3822 43.7503 69.3155 38.8198 69.3155 32.7659ZM50.1444 32.7659C50.1444 28.2099 53.8288 24.5276 58.3874 24.5276C62.9459 24.5276 66.6303 28.2099 66.6303 32.7659C66.6303 37.3219 62.9459 41.0042 58.3874 41.0042C53.8288 41.0042 50.1444 37.3219 50.1444 32.7659Z" fill="white"/>
<path d="M134.26 30.2695L131.325 35.3872C129.077 33.8269 126.017 32.8907 123.332 32.8907C120.272 32.8907 118.398 34.139 118.398 36.3858C118.398 39.1319 121.77 39.756 126.704 41.5659C132.074 43.4383 135.134 45.6851 135.134 50.5532C135.134 57.2312 129.888 61.0383 122.27 61.0383C118.586 61.0383 114.09 60.1021 110.717 57.9801L112.841 52.3007C115.651 53.7985 118.96 54.6099 121.895 54.6099C125.892 54.6099 127.828 53.112 127.828 50.9276C127.828 48.4312 124.955 47.6822 120.272 46.122C114.964 44.312 111.217 42.0028 111.217 36.573C111.217 30.4567 116.088 26.9617 123.144 26.9617C128.077 27.0241 132.074 28.5844 134.26 30.2695Z" fill="white"/>
<path d="M157.115 33.515V60.4767H150.246V33.515H140.255V27.5859H167.106V33.515H157.115Z" fill="white"/>
<path d="M181.594 33.515V40.8796H194.77V46.8086H181.594V54.5476H196.893V60.4767H174.725V27.5859H196.893V33.515H181.594Z" fill="white"/>
<path d="M212.255 54.1108L210.07 60.4767H202.826L215.19 27.5859H222.122L234.798 60.4767H227.305L225.057 54.1108H212.255ZM218.625 35.4498L214.129 48.6186H223.246L218.625 35.4498Z" fill="white"/>
<path d="M270.205 40.3179L261.213 59.5405H257.279L248.474 40.5051V60.4767H241.855V27.5859H248.412L259.465 51.3647L270.143 27.5859H276.825V60.4767H270.205V40.3179Z" fill="white"/>
<path d="M290.126 31.7674C290.126 34.5759 288.003 36.3234 285.567 36.3234C283.132 36.3234 281.009 34.5759 281.009 31.7674C281.009 28.9589 283.132 27.2113 285.567 27.2113C288.003 27.1489 290.126 28.8964 290.126 31.7674ZM281.758 31.7674C281.758 34.139 283.444 35.6369 285.567 35.6369C287.628 35.6369 289.376 34.139 289.376 31.7674C289.376 29.3957 287.69 27.9603 285.567 27.9603C283.507 27.8979 281.758 29.3957 281.758 31.7674ZM285.63 29.3957C286.816 29.3957 287.191 30.0198 287.191 30.7064C287.191 31.3305 286.816 31.7674 286.379 31.9546L287.441 33.9518H286.566L285.692 32.2042H284.755V33.9518H284.006V29.4581H285.63V29.3957ZM284.755 31.5177H285.567C286.067 31.5177 286.379 31.2057 286.379 30.7688C286.379 30.3319 286.129 30.0823 285.567 30.0823H284.755V31.5177Z" fill="white"/>
</g>
</g>
<defs>
<clipPath id="clip0_9_86">
<rect width="291" height="88" fill="white"/>
</clipPath>
</defs>
</svg>
