<svg width="29" height="20" viewBox="0 0 29 20" fill="none" xmlns="http://www.w3.org/2000/svg">
<path fill-rule="evenodd" clip-rule="evenodd" d="M21.3844 19.7791C21.7064 20.0071 22.1214 20.0641 22.4914 19.9241C22.8614 19.7831 23.1334 19.4671 23.2154 19.0841C24.0844 15.0001 26.1924 4.66315 26.9834 0.948148C27.0434 0.668148 26.9434 0.377148 26.7234 0.190148C26.5034 0.00314829 26.1984 -0.0508518 25.9264 0.0501482C21.7334 1.60215 8.8204 6.44715 3.5424 8.40015C3.2074 8.52415 2.9894 8.84615 3.0004 9.19915C3.0124 9.55315 3.2504 9.86015 3.5934 9.96315C5.9604 10.6711 9.0674 11.6561 9.0674 11.6561C9.0674 11.6561 10.5194 16.0411 11.2764 18.2711C11.3714 18.5511 11.5904 18.7711 11.8794 18.8471C12.1674 18.9221 12.4754 18.8431 12.6904 18.6401C13.9064 17.4921 15.7864 15.7171 15.7864 15.7171C15.7864 15.7171 19.3584 18.3361 21.3844 19.7791ZM10.3744 11.1021L12.0534 16.6401L12.4264 13.1331C12.4264 13.1331 18.9134 7.28215 22.6114 3.94715C22.7194 3.84915 22.7344 3.68515 22.6444 3.57015C22.5554 3.45515 22.3914 3.42815 22.2684 3.50615C17.9824 6.24315 10.3744 11.1021 10.3744 11.1021Z" fill="white"/>
</svg>
