<svg width="409" height="88" viewBox="0 0 409 88" fill="none" xmlns="http://www.w3.org/2000/svg">
<g clip-path="url(#clip0_8_57)">
<path d="M189.944 27.8455C194.887 27.8455 198.689 29.3671 201.35 32.6005C204.012 35.834 205.343 40.2086 205.343 45.9146V49.1481H181.769C181.959 52.1913 183.1 54.4737 184.811 56.1856C186.522 57.8974 188.803 58.8484 191.465 58.8484C195.267 58.8484 198.309 57.3268 200.59 54.2835L204.963 58.468C203.442 60.5602 201.541 62.272 199.069 63.4132C196.598 64.5544 193.936 65.125 190.894 65.125C185.762 65.125 181.579 63.4132 178.347 60.1798C175.115 56.9463 173.595 52.5717 173.595 47.2461V46.2951C173.595 42.6812 174.355 39.4478 175.686 36.5948C177.017 33.7417 179.108 31.4593 181.579 29.9377C184.051 28.6063 186.902 27.8455 189.944 27.8455ZM174.925 15.8628V22.71H159.717V64.5544H151.352V22.71H136.333V15.8628H174.925ZM189.944 34.3124C187.663 34.3124 185.952 35.0732 184.621 36.5948C183.29 38.1164 182.34 40.3988 181.959 43.0616H197.358V42.491C197.168 39.8282 196.408 37.736 195.267 36.4046C193.936 34.8829 192.225 34.3124 189.944 34.3124ZM218.84 64.5544H210.666V13.2H218.84V64.5544ZM241.654 65.3152C236.521 65.3152 232.338 63.6034 229.106 60.37C225.874 57.1366 224.354 52.7619 224.354 47.4363V46.4853C224.354 42.8714 225.114 39.638 226.445 36.785C227.776 33.932 229.867 31.6495 232.338 30.1279C234.81 28.6063 237.661 27.8455 240.703 27.8455C245.646 27.8455 249.448 29.3671 252.11 32.6005C254.771 35.834 256.102 40.2086 256.102 45.9146V49.1481H232.528C232.718 52.1913 233.859 54.4737 235.57 56.1856C237.281 57.8974 239.562 58.8484 242.224 58.8484C246.026 58.8484 249.068 57.3268 251.349 54.2835L255.722 58.468C254.201 60.5602 252.3 62.272 249.828 63.4132C247.357 64.7446 244.695 65.3152 241.654 65.3152ZM240.703 34.3124C238.422 34.3124 236.711 35.0732 235.38 36.5948C234.049 38.1164 233.099 40.3988 232.718 43.0616H248.117V42.491C247.927 39.8282 247.167 37.736 246.026 36.4046C244.695 34.8829 242.984 34.3124 240.703 34.3124ZM260.094 46.2951C260.094 40.589 261.425 36.2144 264.086 32.7907C266.748 29.3671 270.17 27.8455 274.542 27.8455C278.725 27.8455 281.957 29.3671 284.238 32.2201L284.618 28.6063H292.032V63.7936C292.032 68.5487 290.511 72.3527 287.66 75.0155C284.618 77.6783 280.626 79.2 275.683 79.2C273.021 79.2 270.36 78.6294 267.889 77.4881C265.417 76.3469 263.516 75.0155 262.185 73.1135L265.987 68.1683C268.459 71.2115 271.501 72.5429 275.303 72.5429C277.964 72.5429 280.055 71.7821 281.766 70.2605C283.287 68.7389 284.048 66.6467 284.048 63.7936V61.321C281.766 63.9838 278.535 65.3152 274.732 65.3152C270.55 65.3152 267.128 63.6034 264.276 60.1798C261.425 56.9463 260.094 52.1913 260.094 46.2951ZM268.269 47.0559C268.269 50.6697 269.029 53.5227 270.55 55.6149C272.071 57.7072 274.162 58.6582 276.634 58.6582C279.865 58.6582 282.337 57.3268 283.858 54.4737V38.4968C282.337 35.834 279.865 34.3124 276.634 34.3124C273.972 34.3124 271.881 35.4536 270.36 37.5458C269.029 39.638 268.269 42.8714 268.269 47.0559ZM318.457 35.834C317.317 35.6438 316.366 35.6438 315.226 35.6438C311.423 35.6438 308.952 37.1654 307.621 40.0184V64.7446H299.447V28.6063H307.241L307.431 32.6005C309.332 29.3671 312.184 27.8455 315.606 27.8455C316.746 27.8455 317.697 28.0357 318.457 28.2259V35.834ZM343.172 64.5544C342.791 63.7936 342.411 62.6524 342.221 61.1308C339.56 63.7936 336.518 65.125 332.716 65.125C329.104 65.125 326.062 64.174 323.781 62.0818C321.499 59.9896 320.359 57.517 320.359 54.4737C320.359 50.6697 321.879 47.6265 324.731 45.5342C327.583 43.442 331.765 42.491 337.088 42.491H342.031V40.2086C342.031 38.3066 341.461 36.785 340.51 35.6438C339.369 34.5026 337.849 33.932 335.757 33.932C333.856 33.932 332.335 34.3124 331.195 35.2634C330.054 36.2144 329.484 37.3556 329.484 38.8772H321.309C321.309 36.9752 321.879 35.0732 323.21 33.3613C324.541 31.6495 326.252 30.3181 328.533 29.3671C330.815 28.4161 333.286 27.8455 336.138 27.8455C340.32 27.8455 343.742 28.9867 346.213 31.0789C348.685 33.1712 350.016 36.2144 350.016 40.0184V56.3757C350.016 59.6092 350.396 62.272 351.346 64.174V64.7446H343.172V64.5544ZM334.236 58.8484C335.757 58.8484 337.278 58.468 338.799 57.7072C340.13 56.9464 341.271 55.8051 342.031 54.4737V47.6265H337.658C334.617 47.6265 332.335 48.1971 330.815 49.1481C329.294 50.2893 328.533 51.6207 328.533 53.5227C328.533 55.0443 329.104 56.3757 330.054 57.3268C331.195 58.2778 332.526 58.8484 334.236 58.8484ZM365.224 28.4161L365.414 32.2201C367.886 29.1769 371.498 27.8455 375.87 27.8455C380.623 27.8455 384.045 29.7475 385.756 33.3613C388.417 29.7475 392.03 27.8455 396.782 27.8455C400.775 27.8455 403.816 28.9867 405.717 31.0789C407.618 33.3614 408.759 36.5948 408.759 40.7792V64.5544H400.584V40.9694C400.584 38.687 400.014 36.9752 399.064 35.834C398.113 34.6928 396.402 34.3124 394.121 34.3124C392.22 34.3124 390.699 34.883 389.558 35.834C388.417 36.785 387.657 38.1164 387.087 39.638V64.5544H378.912V40.7792C378.722 36.5948 376.631 34.3124 372.448 34.3124C369.217 34.3124 366.935 35.6438 365.604 38.3066V64.5544H357.43V28.4161H365.224Z" fill="white"/>
<path fill-rule="evenodd" clip-rule="evenodd" d="M80.8518 87.028C82.2679 88.0312 84.093 88.282 85.7202 87.666C87.3474 87.0456 88.5437 85.6552 88.9043 83.97C92.726 66.0004 101.997 20.5179 105.475 4.17185C105.739 2.93985 105.299 1.65945 104.332 0.836651C103.364 0.0138525 102.023 -0.223748 100.827 0.220652C82.3867 7.04946 25.5972 28.3675 2.38538 36.9607C0.912104 37.5063 -0.0466266 38.9231 0.0017497 40.4763C0.0545239 42.0339 1.10121 43.3847 2.60967 43.8379C13.0194 46.9528 26.6835 51.2868 26.6835 51.2868C26.6835 51.2868 33.0692 70.5808 36.3984 80.3928C36.8161 81.6248 37.7793 82.5928 39.0503 82.9272C40.3168 83.2572 41.6714 82.9096 42.6169 82.0164C47.9647 76.9652 56.2327 69.1552 56.2327 69.1552C56.2327 69.1552 71.9418 80.6788 80.8518 87.028ZM32.4315 48.8492L39.8155 73.2164L41.4559 57.7856C41.4559 57.7856 69.9847 32.0415 86.248 17.3675C86.7229 16.9363 86.7889 16.2147 86.3931 15.7087C86.0017 15.2027 85.2805 15.0839 84.7395 15.4271C65.8903 27.4699 32.4315 48.8492 32.4315 48.8492Z" fill="white"/>
</g>
<defs>
<clipPath id="clip0_8_57">
<rect width="409" height="88" fill="white"/>
</clipPath>
</defs>
</svg>
