<svg width="29" height="20" viewBox="0 0 29 20" fill="none" xmlns="http://www.w3.org/2000/svg">
<g clip-path="url(#clip0_4_4)">
<mask id="mask0_4_4" style="mask-type:luminance" maskUnits="userSpaceOnUse" x="0" y="0" width="29" height="20">
<path d="M29 0H0V20H29V0Z" fill="white"/>
</mask>
<g mask="url(#mask0_4_4)">
<path d="M27.6429 2.36769C26.7265 2.76923 25.75 3.03538 24.7319 3.16462C25.7792 2.54 26.5786 1.55846 26.9544 0.375385C25.9779 0.956923 24.8998 1.36769 23.7508 1.59692C22.8236 0.610769 21.5022 0 20.0606 0C17.2636 0 15.0119 2.26769 15.0119 5.04769C15.0119 5.44769 15.0457 5.83231 15.1289 6.19846C10.9288 5.99385 7.21239 3.98308 4.71576 0.92C4.27989 1.67538 4.02422 2.54 4.02422 3.47077C4.02422 5.21846 4.92522 6.76769 6.26826 7.66462C5.45658 7.64923 4.66031 7.41385 3.98571 7.04308C3.98571 7.05846 3.98571 7.07846 3.98571 7.09846C3.98571 9.55077 5.7369 11.5877 8.0333 12.0569C7.62208 12.1692 7.17388 12.2231 6.70875 12.2231C6.38531 12.2231 6.05879 12.2046 5.7523 12.1369C6.40687 14.1354 8.26433 15.6046 10.4729 15.6523C8.75411 16.9954 6.57167 17.8046 4.20904 17.8046C3.79473 17.8046 3.39737 17.7862 3 17.7354C5.23788 19.1769 7.89007 20 10.7502 20C20.0467 20 25.1293 12.3077 25.1293 5.64C25.1293 5.41692 25.1216 5.20154 25.1108 4.98769C26.1135 4.27692 26.9559 3.38923 27.6429 2.36769Z" fill="white"/>
</g>
</g>
<defs>
<clipPath id="clip0_4_4">
<rect width="29" height="20" fill="white"/>
</clipPath>
</defs>
</svg>
