<svg width="29" height="20" viewBox="0 0 29 20" fill="none" xmlns="http://www.w3.org/2000/svg">
<g clip-path="url(#clip0_4_10)">
<mask id="mask0_4_10" style="mask-type:luminance" maskUnits="userSpaceOnUse" x="0" y="0" width="29" height="20">
<path d="M29 0H0V20H29V0Z" fill="white"/>
</mask>
<g mask="url(#mask0_4_10)">
<path d="M28.2211 1.92727C27.4216 0.523636 26.5539 0.265455 24.7874 0.167273C23.0226 0.0490909 18.585 0 14.7405 0C10.8887 0 6.44921 0.0490911 4.68632 0.165455C2.92342 0.265455 2.05395 0.521818 1.24711 1.92727C0.423684 3.32909 0 5.74364 0 9.99455C0 9.99818 0 10 0 10C0 10.0036 0 10.0055 0 10.0055V10.0091C0 14.2418 0.423684 16.6745 1.24711 18.0618C2.05395 19.4655 2.92158 19.72 4.68447 19.8382C6.44921 19.94 10.8887 20 14.7405 20C18.585 20 23.0226 19.94 24.7892 19.84C26.5558 19.7218 27.4234 19.4673 28.2229 18.0636C29.0537 16.6764 29.4737 14.2436 29.4737 10.0109C29.4737 10.0109 29.4737 10.0055 29.4737 10.0018V9.99636C29.4737 5.74364 29.0537 3.32909 28.2211 1.92727ZM11.0526 15.4545V4.54545L20.2632 10L11.0526 15.4545Z" fill="white"/>
</g>
</g>
<defs>
<clipPath id="clip0_4_10">
<rect width="29" height="20" fill="white"/>
</clipPath>
</defs>
</svg>
